<svg xmlns="http://www.w3.org/2000/svg" width="152" height="40" viewBox="0 0 152 40">
    <g fill="none" fill-rule="evenodd">
        <g fill-rule="nonzero">
            <g>
                <g>
                    <g>
                        <path fill="#A6A6A6" d="M141.76 0H9.536c-.367 0-.73 0-1.095.002-.306.002-.61.008-.919.013C6.85.023 6.18.082 5.517.19c-.661.113-1.302.324-1.9.627-.599.306-1.145.704-1.62 1.18-.477.473-.875 1.02-1.178 1.62-.304.6-.514 1.24-.625 1.903-.111.662-.17 1.332-.179 2.002-.01.307-.01.615-.015.921V31.56c.005.31.006.61.015.921.008.671.068 1.34.18 2.002.11.663.32 1.306.624 1.905.303.598.701 1.143 1.179 1.614.473.477 1.02.875 1.618 1.179.599.304 1.24.517 1.901.63.663.11 1.333.168 2.004.177.31.007.613.011.919.011.366.002.728.002 1.095.002H141.76c.36 0 .724 0 1.084-.002.305 0 .617-.004.922-.01.67-.01 1.339-.068 2-.178.664-.114 1.307-.327 1.908-.63.599-.304 1.145-.702 1.617-1.179.476-.473.875-1.018 1.182-1.614.302-.6.51-1.242.619-1.905.111-.661.173-1.33.185-2.002.004-.31.004-.61.004-.921.008-.364.008-.725.008-1.094V9.536c0-.366 0-.73-.008-1.092 0-.306 0-.614-.004-.92-.012-.672-.074-1.34-.185-2.003-.109-.662-.318-1.303-.62-1.903-.617-1.203-1.595-2.182-2.798-2.8-.601-.302-1.244-.514-1.908-.627-.661-.11-1.33-.169-2-.176-.305-.005-.617-.011-.922-.013C142.485 0 142.12 0 141.76 0z" transform="translate(-865 -6660) translate(15 6458) translate(850 202)"/>
                        <path fill="#000" d="M8.445 39.125c-.305 0-.602-.004-.904-.01-.627-.009-1.251-.063-1.87-.164-.576-.1-1.134-.284-1.656-.548-.517-.261-.99-.605-1.397-1.016-.414-.407-.76-.879-1.02-1.397-.265-.521-.449-1.08-.544-1.657-.103-.62-.158-1.247-.166-1.875-.007-.21-.015-.913-.015-.913v-23.1s.009-.692.015-.895c.007-.628.063-1.253.165-1.872.096-.579.279-1.14.544-1.662.26-.518.603-.99 1.015-1.398.41-.412.884-.757 1.402-1.023.52-.263 1.078-.446 1.653-.544C6.287.95 6.915.895 7.543.887l.902-.012H142.84l.913.013c.623.007 1.244.061 1.859.162.58.099 1.144.284 1.67.548 1.038.535 1.883 1.381 2.415 2.42.26.52.441 1.076.536 1.649.103.624.161 1.255.173 1.887.003.283.003.588.003.89.008.375.008.732.008 1.092v20.929c0 .363 0 .718-.008 1.075 0 .325 0 .623-.004.93-.011.62-.068 1.24-.17 1.853-.094.581-.276 1.145-.54 1.67-.264.513-.607.98-1.016 1.386-.409.414-.881.759-1.4 1.022-.525.266-1.087.452-1.667.55-.619.101-1.243.156-1.87.163-.293.007-.6.011-.897.011l-1.084.002-133.316-.002z" transform="translate(-865 -6660) translate(15 6458) translate(850 202)"/>
                    </g>
                    <g fill="#FFF">
                        <path d="M15.769 12.3c.022-1.696.911-3.263 2.356-4.151-.915-1.308-2.395-2.108-3.99-2.158-1.68-.176-3.308 1.005-4.164 1.005-.872 0-2.19-.988-3.608-.958-1.867.06-3.565 1.096-4.473 2.727-1.934 3.349-.491 8.27 1.361 10.977.927 1.325 2.01 2.805 3.428 2.753 1.387-.058 1.905-.885 3.58-.885 1.658 0 2.144.885 3.59.852 1.489-.025 2.426-1.332 3.32-2.67.667-.944 1.18-1.988 1.52-3.092-1.769-.748-2.918-2.48-2.92-4.4zM13.037 4.21c.812-.973 1.212-2.225 1.115-3.49-1.24.13-2.385.723-3.208 1.66-.812.924-1.223 2.133-1.144 3.361 1.257.013 2.45-.55 3.237-1.53z" transform="translate(-865 -6660) translate(15 6458) translate(850 202) translate(9 8)"/>
                    </g>
                    <g fill="#FFF">
                        <path d="M.58 1.483c.006-.305.257-.547.562-.543.304.004.549.253.547.558-.002.305-.25.55-.554.55-.15.002-.293-.058-.397-.165-.105-.106-.162-.25-.158-.4zM.67 8.57V2.604h.928V8.57H.67zM3.113 4.067h.856v.715h.066c.231-.526.77-.848 1.344-.802.444-.033.879.137 1.182.463.303.326.442.772.377 1.212V8.57h-.89V5.878c0-.724-.314-1.083-.97-1.083-.302-.014-.594.104-.8.323-.207.22-.308.518-.276.818V8.57h-.889V4.067zM8.089 6.316c0-1.422.731-2.324 1.869-2.324.574-.026 1.112.282 1.38.79h.067V2.31h.889v6.26h-.852v-.712h-.07c-.288.505-.833.808-1.414.787-1.145 0-1.87-.902-1.87-2.329zm.918 0c0 .955.45 1.53 1.203 1.53.749 0 1.212-.582 1.212-1.526 0-.938-.468-1.529-1.212-1.529-.748 0-1.203.578-1.203 1.525zM13.636 2.735c-.014-.235.117-.455.33-.555.215-.1.468-.06.64.103.17.161.227.412.14.63-.087.22-.3.364-.535.364-.149.008-.295-.046-.403-.148-.109-.102-.171-.244-.172-.394zm.132 1.332h.885V8.57h-.885V4.067zM16.087 4.067h.855v.69h.067c.196-.491.687-.8 1.216-.765.133-.001.266.011.396.037v.877c-.163-.034-.33-.052-.496-.053-.296-.027-.59.073-.81.274-.218.202-.342.487-.34.784v2.66h-.888V4.066zM19.554 2.735c-.014-.235.117-.455.33-.555.215-.1.468-.06.64.103.17.161.227.412.14.63-.087.22-.3.364-.535.364-.15.008-.295-.046-.403-.148-.109-.102-.171-.244-.172-.394zm.132 1.332h.885V8.57h-.885V4.067zM22.005 4.067h.855v.715h.067c.231-.526.77-.848 1.344-.802.443-.033.878.137 1.181.463.304.326.442.772.377 1.212V8.57h-.889V5.878c0-.724-.314-1.083-.971-1.083-.301-.014-.593.104-.8.323-.207.22-.307.518-.275.818V8.57h-.89V4.067z" transform="translate(-865 -6660) translate(15 6458) translate(850 202) translate(35 23)"/>
                    </g>
                    <g fill="#FFF">
                        <path d="M8.305 9.477H3.57l-1.136 3.357H.43L4.913.416h2.083l4.484 12.418H9.44L8.305 9.477zM4.062 7.928h3.752l-1.85-5.447h-.052l-1.85 5.447zM21.162 8.307c0 2.814-1.506 4.621-3.778 4.621-1.175.062-2.281-.554-2.849-1.584h-.043v4.485h-1.858V3.779h1.799v1.507h.034c.593-1.024 1.7-1.64 2.883-1.6 2.297 0 3.812 1.815 3.812 4.621zm-1.91 0c0-1.833-.947-3.038-2.393-3.038-1.42 0-2.375 1.23-2.375 3.038 0 1.824.955 3.046 2.375 3.046 1.446 0 2.393-1.196 2.393-3.046zM31.126 8.307c0 2.814-1.505 4.621-3.777 4.621-1.175.062-2.281-.554-2.849-1.584h-.043v4.485h-1.858V3.779h1.798v1.507h.035c.592-1.024 1.7-1.64 2.882-1.6 2.298 0 3.812 1.815 3.812 4.621zm-1.91 0c0-1.833-.946-3.038-2.392-3.038-1.42 0-2.375 1.23-2.375 3.038 0 1.824.955 3.046 2.375 3.046 1.446 0 2.393-1.196 2.393-3.046zM37.712 9.374c.138 1.231 1.334 2.04 2.97 2.04 1.566 0 2.693-.809 2.693-1.92 0-.963-.68-1.54-2.29-1.936l-1.609-.388c-2.28-.55-3.339-1.617-3.339-3.347 0-2.143 1.867-3.615 4.519-3.615 2.624 0 4.423 1.472 4.483 3.615h-1.876c-.112-1.24-1.137-1.988-2.634-1.988-1.497 0-2.521.757-2.521 1.859 0 .878.654 1.394 2.255 1.79l1.368.336c2.548.602 3.606 1.626 3.606 3.442 0 2.323-1.85 3.778-4.794 3.778-2.753 0-4.613-1.42-4.733-3.667h1.902zM49.348 1.637V3.78h1.722V5.25h-1.722v4.992c0 .775.345 1.136 1.102 1.136.204-.003.408-.018.611-.043V12.8c-.34.064-.686.093-1.032.086-1.833 0-2.548-.688-2.548-2.444V5.25h-1.316V3.78h1.316V1.637h1.867zM52.067 8.307c0-2.849 1.678-4.639 4.294-4.639 2.625 0 4.295 1.79 4.295 4.64 0 2.856-1.661 4.638-4.295 4.638-2.633 0-4.294-1.782-4.294-4.639zm6.695 0c0-1.954-.895-3.107-2.401-3.107-1.506 0-2.4 1.162-2.4 3.107 0 1.962.894 3.107 2.4 3.107 1.506 0 2.401-1.145 2.401-3.107zM62.188 3.78h1.772v1.54h.043c.248-.991 1.157-1.674 2.178-1.635.214 0 .428.023.637.07v1.738c-.27-.083-.553-.12-.835-.113-.546-.022-1.075.196-1.447.596-.373.4-.551.944-.49 1.487v5.37h-1.858V3.78zM75.386 10.174c-.25 1.644-1.85 2.772-3.898 2.772-2.634 0-4.269-1.765-4.269-4.596 0-2.84 1.644-4.682 4.19-4.682 2.506 0 4.08 1.721 4.08 4.466v.637h-6.394v.112c-.06.674.173 1.342.64 1.832.465.49 1.12.758 1.796.733.902.084 1.752-.434 2.09-1.274h1.765zm-6.282-2.702h4.526c.034-.605-.186-1.198-.608-1.634-.421-.436-1.006-.677-1.612-.664-.612-.003-1.199.237-1.632.669-.433.431-.676 1.018-.674 1.63zM76.738 4.959L77.753.416 79.56.416 78.33 4.959zM79.479 8.307c0-2.797 1.54-4.622 3.786-4.622 1.176-.058 2.281.564 2.84 1.6h.035V.416h1.867v12.419H86.2v-1.54h-.034c-.563 1.058-1.687 1.695-2.883 1.634-2.264 0-3.804-1.824-3.804-4.62zm1.901 0c0 1.859.948 3.046 2.393 3.046 1.429 0 2.384-1.205 2.384-3.046 0-1.825-.955-3.038-2.384-3.038-1.445 0-2.393 1.196-2.393 3.038zM89.645 10.26c0-1.583 1.213-2.539 3.364-2.668l2.479-.137v-.689c0-1.007-.662-1.575-1.79-1.575-.864-.115-1.68.43-1.902 1.274h-1.738c.052-1.635 1.574-2.797 3.692-2.797 2.16 0 3.588 1.18 3.588 2.96v6.206h-1.78v-1.49h-.044c-.58 1.029-1.676 1.66-2.857 1.645-.77.075-1.537-.178-2.11-.698-.574-.52-.901-1.257-.902-2.03zm5.843-.817v-.697l-2.229.137c-1.11.07-1.738.551-1.738 1.326 0 .792.654 1.308 1.652 1.308.584.04 1.16-.158 1.595-.549.436-.39.695-.94.72-1.525zM99.232 3.78h1.772v1.54h.043c.516-1.086 1.65-1.74 2.85-1.643 1.996 0 3.14 1.282 3.14 3.356v5.8h-1.867V7.395c0-1.36-.628-2.116-1.936-2.116-.608-.016-1.194.233-1.605.682-.41.449-.607 1.054-.539 1.659v5.215h-1.858V3.78z" transform="translate(-865 -6660) translate(15 6458) translate(850 202) translate(34 8)"/>
                    </g>
                </g>
            </g>
        </g>
    </g>
</svg>
