<svg xmlns="http://www.w3.org/2000/svg" width="135" height="40" viewBox="0 0 135 40">
    <defs>
        <linearGradient id="abxzr5zjca" x1="61.034%" x2="26.503%" y1="4.948%" y2="71.907%">
            <stop offset="0%" stop-color="#00A0FF"/>
            <stop offset="1%" stop-color="#00A1FF"/>
            <stop offset="26%" stop-color="#00BEFF"/>
            <stop offset="51%" stop-color="#00D2FF"/>
            <stop offset="76%" stop-color="#00DFFF"/>
            <stop offset="100%" stop-color="#00E3FF"/>
        </linearGradient>
        <linearGradient id="hmwtllolsb" x1="107.685%" x2="-130.64%" y1="50%" y2="50%">
            <stop offset="0%" stop-color="#FFE000"/>
            <stop offset="41%" stop-color="#FFBD00"/>
            <stop offset="78%" stop-color="orange"/>
            <stop offset="100%" stop-color="#FF9C00"/>
        </linearGradient>
        <linearGradient id="3vbvwegmuc" x1="86.219%" x2="-50.15%" y1="30.911%" y2="135.988%">
            <stop offset="0%" stop-color="#FF3A44"/>
            <stop offset="100%" stop-color="#C31162"/>
        </linearGradient>
        <linearGradient id="ti68jv8zfd" x1="-18.754%" x2="42.121%" y1="-11.832%" y2="35.095%">
            <stop offset="0%" stop-color="#32A071"/>
            <stop offset="7%" stop-color="#2DA771"/>
            <stop offset="48%" stop-color="#15CF74"/>
            <stop offset="80%" stop-color="#06E775"/>
            <stop offset="100%" stop-color="#00F076"/>
        </linearGradient>
    </defs>
    <g fill="none" fill-rule="evenodd">
        <g fill-rule="nonzero">
            <g>
                <g transform="translate(-1032 -6660) translate(15 6458) translate(1017 202)">
                    <rect width="135" height="40" fill="#000" rx="5"/>
                    <path fill="#A6A6A6" d="M130 .8c2.32 0 4.2 1.88 4.2 4.2v30c0 2.32-1.88 4.2-4.2 4.2H5C2.68 39.2.8 37.32.8 35V5C.8 2.68 2.68.8 5 .8h125m0-.8H5C2.239 0 0 2.239 0 5v30c0 2.761 2.239 5 5 5h125c2.761 0 5-2.239 5-5V5c0-2.761-2.239-5-5-5z"/>
                    <path fill="#FFF" d="M64.72 12.79c-2.053.006-3.714 1.673-3.71 3.727.004 2.053 1.67 3.715 3.723 3.713 2.054-.002 3.717-1.667 3.717-3.72.016-.993-.372-1.95-1.075-2.652-.703-.702-1.662-1.087-2.655-1.068zm0 6c-.927.066-1.8-.442-2.2-1.28-.4-.84-.246-1.837.388-2.516.634-.68 1.619-.902 2.483-.56.864.341 1.43 1.177 1.429 2.106.019.574-.192 1.131-.587 1.548-.394.417-.94.659-1.513.672v.03zm-8.14-6c-2.053.006-3.714 1.673-3.71 3.727.004 2.053 1.67 3.715 3.723 3.713 2.054-.002 3.717-1.667 3.717-3.72.016-.993-.372-1.95-1.075-2.652-.703-.702-1.662-1.087-2.655-1.068zm0 6c-.927.066-1.8-.442-2.2-1.28-.4-.84-.246-1.837.388-2.516.634-.68 1.619-.902 2.483-.56.864.341 1.43 1.177 1.429 2.106.019.574-.192 1.131-.587 1.548-.394.417-.94.659-1.513.672v.03zm-9.68-4.86v1.58h3.77c-.051.745-.355 1.45-.86 2-.764.777-1.821 1.195-2.91 1.15-2.237-.11-3.995-1.955-3.995-4.195s1.758-4.086 3.995-4.195c1.059-.014 2.08.392 2.84 1.13l1.11-1.11c-1.062-1.051-2.506-1.625-4-1.59-3.19 0-5.775 2.586-5.775 5.775 0 3.19 2.586 5.775 5.775 5.775 1.503.054 2.958-.535 4-1.62.922-1.004 1.413-2.328 1.37-3.69.006-.335-.02-.67-.08-1l-5.24-.01zm39.6 1.23c-.457-1.38-1.727-2.326-3.18-2.37-.967.004-1.89.404-2.553 1.107s-1.009 1.648-.957 2.613c-.022.988.359 1.942 1.055 2.644.696.701 1.647 1.09 2.635 1.076 1.245.007 2.41-.613 3.1-1.65l-1.27-.84c-.393.631-1.087 1.01-1.83 1-.775.028-1.489-.42-1.8-1.13l5-2.06-.2-.39zm-5.07 1.24c-.047-.549.134-1.093.502-1.504.367-.41.887-.651 1.438-.666.577-.038 1.12.274 1.38.79l-3.32 1.38zm-4 3.61H79V9.07h-1.61l.04 10.94zm-2.68-6.38h-.06c-.513-.557-1.244-.86-2-.83-2.054 0-3.72 1.666-3.72 3.72 0 2.054 1.666 3.72 3.72 3.72.759.035 1.493-.274 2-.84h.06v.54c0 1.42-.76 2.18-2 2.18-.833-.021-1.571-.542-1.87-1.32l-1.42.59c.547 1.339 1.854 2.21 3.3 2.2 1.92 0 3.53-1.13 3.53-3.87V13h-1.57l.03.63zm-1.87 5.14c-1.187-.08-2.11-1.065-2.11-2.255s.923-2.176 2.11-2.255c.57.025 1.105.281 1.483.71.377.428.564.991.517 1.56.041.57-.154 1.132-.54 1.554-.386.422-.928.666-1.5.676l.04.01zm21.31-9.69h-3.91V20h1.63v-4.14h2.28c1.257.068 2.449-.564 3.098-1.642.649-1.079.649-2.427 0-3.506-.65-1.078-1.841-1.71-3.098-1.642v.01zm0 5.27h-2.32v-3.76h2.32c1.036 0 1.875.84 1.875 1.875 0 1.036-.84 1.875-1.875 1.875v.01zm10.08-1.57c-1.216-.072-2.359.584-2.91 1.67l1.45.6c.295-.538.879-.852 1.49-.8.854-.076 1.61.548 1.7 1.4v.11c-.524-.277-1.107-.422-1.7-.42-1.56 0-3.15.86-3.15 2.46.03.682.336 1.322.847 1.774.51.452 1.183.678 1.863.626.855.074 1.68-.335 2.14-1.06V20h1.57v-4.21c.02-1.94-1.42-3.02-3.29-3.02l-.01.01zm-.2 6c-.53 0-1.28-.27-1.28-.93 0-.84.93-1.17 1.73-1.17.513-.026 1.024.085 1.48.32-.118.98-.933 1.728-1.92 1.76l-.01.02zm9.26-5.78l-1.87 4.74h-.06L109.46 13h-1.76l2.91 6.62-1.61 3.69h1.7L115.14 13h-1.81zm-14.69 7h1.63V9.07h-1.63V20z"/>
                    <path fill="url(#abxzr5zjca)" d="M10.44 7.54c-.326.391-.49.892-.46 1.4v22.12c-.03.508.134 1.009.46 1.4l.07.07L22.9 20.15v-.29L10.51 7.47l-.07.07z"/>
                    <path fill="url(#hmwtllolsb)" d="M27 24.28l-4.1-4.13v-.29l4.1-4.14.09.05L32 18.56c1.4.79 1.4 2.09 0 2.89l-4.89 2.78-.11.05z"/>
                    <path fill="url(#3vbvwegmuc)" d="M27.12 24.22L22.9 20 10.44 32.46c.589.518 1.462.543 2.08.06l14.61-8.3"/>
                    <path fill="url(#ti68jv8zfd)" d="M27.12 15.78l-14.61-8.3c-.618-.483-1.491-.458-2.08.06L22.9 20l4.22-4.22z"/>
                    <path fill="#000" d="M27 24.13l-14.49 8.25c-.593.443-1.407.443-2 0l-.07.07.07.07c.592.447 1.408.447 2 0l14.61-8.3-.12-.09z" opacity=".2"/>
                    <path fill="#000" d="M10.44 32.32c-.326-.391-.49-.892-.46-1.4v.15c-.03.508.134 1.009.46 1.4l.07-.07-.07-.08zM32 21.3l-5 2.83.09.09L32 21.44c.567-.266.948-.816 1-1.44-.114.565-.483 1.045-1 1.3z" opacity=".12"/>
                    <path fill="#FFF" d="M12.51 7.62L32 18.7c.517.255.886.735 1 1.3-.052-.624-.433-1.174-1-1.44L12.51 7.48c-1.4-.79-2.54-.13-2.54 1.47v.15c.03-1.61 1.15-2.27 2.54-1.48z" opacity=".25"/>
                    <g fill="#FFF" stroke="#FFF" stroke-width=".2">
                        <path d="M.82 2.85H.1V.93h.71l.01 1.92zM2.09 7V.93h1.86c.832-.04 1.644.268 2.24.85 1.119 1.25 1.119 3.14 0 4.39-.596.582-1.408.89-2.24.85L2.09 7zm.78-.75h1.08c.615.034 1.217-.183 1.67-.6.72-.654.952-1.691.577-2.59-.375-.898-1.275-1.463-2.247-1.41H2.87v4.6zm8.8-4.57H8.9v1.93h2.5v.73H8.9v1.93h2.77V7H8.12V.93h3.55v.75zM12.79 7V.93h1l3 4.73V.93h.78V7h-.82l-3.09-5v5h-.87zm7.28 0l2.3-6.09h.88L25.54 7h-.87l-.59-1.65h-2.55L20.93 7h-.86zm1.73-2.38h2l-1-2.75-1 2.75zM26.33 7V.93h.78v5.34h2.64V7h-3.42zm4.27 0V.93h.78V7h-.78zm2.18 0V.93h1l3 4.73V.93h.78V7h-.82l-3.09-5v5h-.87z" transform="translate(41 26)"/>
                    </g>
                </g>
            </g>
        </g>
    </g>
</svg>
