<svg height="17" viewBox="0 0 18 17" width="18" xmlns="http://www.w3.org/2000/svg"><path d="m.800781-.0117188h16.316407c.464843 0 .839843.3828128.839843.8515628v15.292968c0 .472657-.375.855469-.839843.855469h-16.316407c-.464843 0-.8437498-.382812-.8437498-.855469v-15.292968c0-.46875.3789068-.8515628.8437498-.8515628zm0 0" fill="#1647ba"/><g fill-rule="evenodd"><path d="m5.109375 12.910156c.773437.183594 1.574219.183594 2.347656 0v-4.792968c.003907-.308594.039063-.617188.105469-.917969.128906-.625.632812-1.09375 1.257812-1.167969 1-.109375 1.59375.332031 1.59375 1.90625v2.214844c.785157-.136719 1.585938-.136719 2.371094 0 0-.488282.023438-1.480469 0-2.476563-.035156-1.273437-.035156-2.390625-.902344-3.085937-.910156-.726563-2.144531-.890625-3.210937-.425782-.558594.25-1.03125.660157-1.363281 1.179688l-.191406-1.011719c-.042969-.179687-.199219-.269531-.464844-.269531-.511719-.027344-1.023438.003906-1.527344.09375-.011719.253906-.015625 3.171875-.015625 8.753906zm0 0" fill="#fff"/><path d="m10.386719 10.777344v2.171875c.796875.167969 1.625.167969 2.421875 0v-2.171875c-.792969-.203125-1.628906-.203125-2.421875 0zm0 0" fill="#7ea3d6"/></g></svg>