<svg xmlns="http://www.w3.org/2000/svg" width="182" height="22"><g fill="none" fill-rule="evenodd"><path fill="#1847BA" d="M0 6.359c.285-.059.57-.105.855-.135.286-.03.602-.044.948-.044.347 0 .653.015.918.044.265.03.539.076.825.135.06.1.117.245.167.434.052.19.098.389.139.598.04.21.076.414.106.614.032.198.056.368.077.508.203-.3.448-.599.734-.898.285-.299.615-.568.993-.808.377-.238.8-.432 1.268-.583C7.5 6.074 8.018 6 8.59 6c1.792 0 3.143.48 4.05 1.435.907.958 1.36 2.464 1.36 4.517v9.87c-.734.118-1.457.178-2.17.178-.714 0-1.437-.06-2.17-.179v-8.733c0-1.077-.169-1.903-.505-2.482-.336-.578-.922-.868-1.758-.868-.347 0-.703.05-1.07.15-.366.1-.698.295-.993.583-.295.29-.535.693-.718 1.212-.183.519-.275 1.195-.275 2.033v8.105c-.734.12-1.457.179-2.17.179-.714 0-1.437-.06-2.171-.179V6.36zm19.109 8.927c.078 1.184.49 2.04 1.233 2.574.743.531 1.721.798 2.935.798.665 0 1.344-.064 2.04-.193.694-.128 1.354-.31 1.98-.546.216.394.401.868.558 1.42.156.551.244 1.142.264 1.773-1.526.592-3.248.888-5.165.888-1.41 0-2.617-.197-3.625-.592-1.008-.393-1.83-.94-2.465-1.641a6.566 6.566 0 0 1-1.408-2.5c-.304-.965-.456-2.02-.456-3.163 0-1.125.156-2.18.47-3.165.313-.986.778-1.844 1.394-2.573a6.603 6.603 0 0 1 2.29-1.73c.909-.424 1.97-.636 3.184-.636 1.056 0 1.995.188 2.817.561.822.375 1.52.888 2.099 1.539a6.505 6.505 0 0 1 1.305 2.32A9.19 9.19 0 0 1 29 13.305c0 .375-.015.744-.045 1.108a9.329 9.329 0 0 1-.101.873h-9.745zm5.958-2.928c-.04-.946-.298-1.71-.778-2.291-.48-.582-1.15-.873-2.01-.873-.979 0-1.722.276-2.23.828-.51.552-.813 1.33-.91 2.336h5.928zM31 6.181a9.66 9.66 0 0 1 .823-.137c.259-.029.543-.044.85-.044.289 0 .572.02.851.06.278.04.552.092.822.151.058.102.11.248.158.44.049.19.092.392.13.605.038.21.073.423.101.634.03.212.053.39.072.53a7.678 7.678 0 0 1 1.558-1.68C36.98 6.247 37.75 6 38.673 6c.192 0 .414.01.664.03.25.02.432.051.548.092.038.2.067.432.086.694.02.262.029.535.029.818 0 .342-.014.715-.043 1.118a8.597 8.597 0 0 1-.158 1.15 3.755 3.755 0 0 0-.708-.06h-.475c-.328 0-.693.035-1.097.105-.404.07-.789.257-1.154.56-.365.302-.668.756-.908 1.36-.242.606-.361 1.452-.361 2.541v7.441c-.346.06-.692.101-1.038.12a16.753 16.753 0 0 1-2.005.001A10.27 10.27 0 0 1 31 21.85V6.18zm14.109 9.105c.077 1.184.49 2.04 1.233 2.574.742.531 1.721.798 2.934.798.666 0 1.345-.064 2.04-.193.695-.128 1.354-.31 1.98-.546.217.394.402.868.559 1.42.156.551.244 1.142.264 1.773-1.526.592-3.248.888-5.166.888-1.409 0-2.617-.197-3.624-.592-1.008-.393-1.83-.94-2.466-1.641-.636-.7-1.105-1.533-1.408-2.5-.303-.965-.455-2.02-.455-3.163 0-1.125.156-2.18.47-3.165a7.393 7.393 0 0 1 1.393-2.573 6.612 6.612 0 0 1 2.29-1.73c.91-.424 1.97-.636 3.185-.636 1.056 0 1.995.188 2.817.561A6.22 6.22 0 0 1 53.253 8.1a6.492 6.492 0 0 1 1.306 2.32c.294.898.441 1.86.441 2.885a13.479 13.479 0 0 1-.147 1.981h-9.744zm5.958-2.928c-.04-.946-.3-1.71-.778-2.291-.48-.582-1.15-.873-2.01-.873-.98 0-1.722.276-2.23.828-.51.552-.813 1.33-.91 2.336h5.928zM66.888.147c.35-.059.695-.098 1.035-.118A18.026 18.026 0 0 1 69.95.03c.35.02.7.058 1.05.117v21c-.914.275-1.842.485-2.785.632-.944.148-2.086.221-3.427.221-1.031 0-2.018-.142-2.961-.427a6.767 6.767 0 0 1-2.494-1.352c-.72-.618-1.289-1.416-1.707-2.398-.418-.98-.626-2.176-.626-3.589 0-1.116.18-2.17.54-3.161A7.507 7.507 0 0 1 59.085 8.5a7.274 7.274 0 0 1 2.436-1.72c.952-.422 2.012-.633 3.18-.633.35 0 .713.015 1.093.044.379.03.744.093 1.094.191V.147zm0 9.44a8.314 8.314 0 0 0-.949-.19 7.726 7.726 0 0 0-.919-.045c-.64 0-1.2.133-1.676.398-.477.264-.87.618-1.182 1.059-.311.44-.54.96-.685 1.558-.145.6-.22 1.221-.22 1.867 0 .805.098 1.486.293 2.045.194.559.461 1.005.802 1.339.34.333.744.573 1.21.72a5.03 5.03 0 0 0 1.517.221c.33 0 .632-.015.904-.045a5.21 5.21 0 0 0 .905-.19V9.587zm9.221 5.699c.079 1.184.49 2.04 1.233 2.574.744.531 1.72.798 2.935.798.665 0 1.344-.064 2.04-.193.695-.128 1.355-.31 1.98-.546.217.394.402.868.559 1.42.155.551.244 1.142.264 1.773-1.527.592-3.248.888-5.165.888-1.41 0-2.618-.197-3.626-.592-1.008-.393-1.829-.94-2.465-1.641a6.58 6.58 0 0 1-1.408-2.5c-.304-.965-.456-2.02-.456-3.163 0-1.125.156-2.18.47-3.165.313-.986.778-1.844 1.394-2.573a6.609 6.609 0 0 1 2.289-1.73c.91-.424 1.971-.636 3.185-.636 1.057 0 1.996.188 2.816.561a6.208 6.208 0 0 1 2.1 1.539 6.492 6.492 0 0 1 1.306 2.32c.294.898.44 1.86.44 2.885 0 .375-.014.744-.044 1.108-.03.366-.063.657-.102.873h-9.745zm5.959-2.928c-.04-.946-.3-1.71-.779-2.291-.48-.582-1.149-.873-2.01-.873-.978 0-1.722.276-2.23.828-.51.552-.813 1.33-.91 2.336h5.929zM88 .177A12.523 12.523 0 0 1 90.112 0c.725 0 1.438.06 2.142.177v21.645c-.704.118-1.417.178-2.142.178-.723 0-1.427-.06-2.112-.178V.177zm4.858 13.62 3.862-7.284a16.137 16.137 0 0 1 2.385-.177c.763 0 1.508.06 2.233.177l-3.984 7.077L102 21.822a16.85 16.85 0 0 1-2.383.178c-.705 0-1.449-.06-2.233-.178l-4.526-8.025zm17.952-2.207c0-.474-.082-.858-.244-1.154a1.81 1.81 0 0 0-.668-.696 2.868 2.868 0 0 0-1.047-.339 9.921 9.921 0 0 0-1.383-.088c-1.094 0-2.259.206-3.493.62a7.867 7.867 0 0 1-.638-1.449c-.142-.453-.212-.995-.212-1.626.89-.297 1.782-.512 2.673-.652a16.43 16.43 0 0 1 2.49-.206c2.107 0 3.751.493 4.935 1.478 1.185.988 1.777 2.565 1.777 4.732v8.873c-.708.217-1.568.425-2.58.621-1.014.197-2.158.296-3.434.296-1.032 0-1.98-.088-2.84-.266-.86-.177-1.6-.474-2.217-.888a4.191 4.191 0 0 1-1.426-1.596c-.335-.651-.503-1.45-.503-2.396 0-.947.208-1.74.624-2.38a4.715 4.715 0 0 1 1.61-1.539 7.238 7.238 0 0 1 2.2-.828c.81-.167 1.62-.251 2.43-.251.588 0 1.236.03 1.945.088v-.355zm0 3.046a14.09 14.09 0 0 0-.79-.104 7.288 7.288 0 0 0-.76-.044c-.992 0-1.777.172-2.355.517-.575.346-.865.902-.865 1.672 0 .513.112.906.334 1.183.223.276.49.478.805.605.314.13.65.208 1.003.237.354.03.663.045.926.045.304 0 .607-.025.912-.074.303-.05.567-.093.79-.133v-3.904zM116 .177A11.39 11.39 0 0 1 117.972 0c.63 0 1.278.06 1.944.177v15.546c0 .612.033 1.106.098 1.48.065.375.166.666.305.873.138.208.32.35.541.43.223.079.5.118.835.118.148 0 .31-.01.486-.03.176-.019.347-.048.513-.088.204.81.306 1.6.306 2.37v.43c0 .126-.02.27-.056.427a4.856 4.856 0 0 1-1.069.208c-.417.04-.802.059-1.153.059-1.425 0-2.57-.419-3.43-1.259-.86-.838-1.292-2.205-1.292-4.1V.177z"/><path fill="#77A4DC" d="M125.19 21.812c-.126-.776-.19-1.54-.19-2.296 0-.754.064-1.53.19-2.327.774-.126 1.54-.189 2.294-.189.755 0 1.53.063 2.328.19a14.8 14.8 0 0 1 .188 2.294c0 .776-.063 1.552-.188 2.328-.798.125-1.562.188-2.295.188-.777 0-1.553-.063-2.328-.188m16.981-3.775c.237.394.436.853.594 1.375.157.523.236 1.14.236 1.848-.79.316-1.534.518-2.227.606-.693.09-1.416.134-2.17.134-1.285 0-2.405-.203-3.356-.606-.95-.404-1.737-.96-2.36-1.671-.624-.71-1.095-1.552-1.412-2.529-.318-.976-.475-2.035-.475-3.18 0-1.123.154-2.168.461-3.134a7.241 7.241 0 0 1 1.394-2.543 6.51 6.51 0 0 1 2.334-1.716c.93-.414 2.01-.621 3.238-.621.436 0 .836.01 1.202.03.366.02.718.06 1.056.118.336.06.673.139 1.009.236.337.1.713.228 1.13.385 0 .455-.06.961-.179 1.523a6.612 6.612 0 0 1-.565 1.612 9.93 9.93 0 0 0-1.56-.399 9.953 9.953 0 0 0-1.53-.103c-1.228 0-2.154.398-2.777 1.197-.623.8-.935 1.936-.935 3.416 0 1.597.336 2.76 1.01 3.49.673.73 1.583 1.093 2.733 1.093.296 0 .568-.004.816-.014.249-.01.491-.034.73-.073.235-.04.479-.1.727-.178.246-.08.539-.178.876-.296M151.485 22c-1.267 0-2.37-.203-3.304-.606-.936-.404-1.711-.966-2.323-1.686a7.285 7.285 0 0 1-1.39-2.53c-.312-.965-.468-2.01-.468-3.134 0-1.123.156-2.178.468-3.164.313-.985.774-1.839 1.39-2.558.612-.72 1.387-1.287 2.323-1.7.935-.415 2.037-.622 3.304-.622 1.269 0 2.374.207 3.32.621.945.414 1.73.982 2.354 1.7.624.72 1.086 1.574 1.389 2.56.3.985.452 2.04.452 3.163 0 1.125-.151 2.169-.452 3.135a7.006 7.006 0 0 1-1.389 2.529c-.623.72-1.409 1.282-2.354 1.686-.946.403-2.051.606-3.32.606m0-3.194c1.127 0 1.937-.409 2.43-1.227.492-.819.74-1.997.74-3.535 0-1.537-.248-2.715-.74-3.533-.493-.819-1.303-1.228-2.43-1.228-1.106 0-1.905.41-2.4 1.228-.492.818-.739 1.996-.739 3.533 0 1.538.247 2.716.74 3.535.494.818 1.293 1.227 2.399 1.227M160 6.359c.273-.059.548-.105.82-.135.274-.03.577-.044.91-.044.333 0 .627.015.88.044.254.03.518.076.793.135.058.1.112.245.16.434.05.19.094.389.133.598a24.02 24.02 0 0 1 .175 1.122c.156-.3.363-.599.617-.898.254-.299.558-.568.909-.808.353-.238.75-.432 1.19-.583.439-.15.933-.224 1.48-.224 2.366 0 3.881.918 4.547 2.751.39-.737.943-1.38 1.656-1.928.715-.549 1.62-.823 2.715-.823 1.72 0 2.987.484 3.798 1.451.812.967 1.217 2.477 1.217 4.53v9.84c-.703.12-1.397.179-2.082.179-.684 0-1.38-.06-2.082-.179v-8.733c0-1.077-.133-1.903-.396-2.482-.264-.578-.797-.868-1.6-.868-.332 0-.66.05-.982.15-.324.1-.615.285-.88.553-.264.27-.48.649-.646 1.137-.167.489-.248 1.121-.248 1.899v8.344c-.704.12-1.4.179-2.083.179-.685 0-1.38-.06-2.084-.179v-8.733c0-1.077-.132-1.903-.396-2.482-.263-.578-.798-.868-1.598-.868-.333 0-.665.05-.999.15-.33.1-.629.295-.893.583-.264.29-.475.693-.632 1.212-.155.519-.234 1.195-.234 2.033v8.105c-.704.12-1.399.179-2.083.179-.685 0-1.378-.06-2.082-.179V6.36z"/></g></svg>